<svg width="53" height="38" viewBox="0 0 53 38" fill="none" xmlns="http://www.w3.org/2000/svg">
<g clip-path="url(#clip0_4492_2245)">
<path d="M14.4511 2.19331C14.4523 2.03235 14.4185 1.87308 14.3521 1.72677C14.2857 1.58046 14.1883 1.45067 14.0668 1.34659C13.8239 1.11349 13.5013 0.984026 13.1663 0.985164C12.9334 0.979701 12.7038 1.04094 12.5039 1.1618C12.2835 1.30135 12.1153 1.51104 12.0259 1.7578L7.79457 11.0766L3.68766 1.67932C3.59787 1.44577 3.4385 1.24617 3.23156 1.1081C3.02462 0.970025 2.78032 0.900293 2.53243 0.908539C2.17744 0.904221 1.83246 1.02754 1.55914 1.25646C1.42295 1.35706 1.31225 1.48878 1.23607 1.64084C1.15989 1.79291 1.12039 1.96102 1.1208 2.13144C1.11814 2.29879 1.15345 2.46452 1.22401 2.61595L6.34847 13.832L4.46141 17.8252C4.38196 17.996 4.33474 18.1802 4.32216 18.3685C4.31869 18.5263 4.3519 18.6827 4.41913 18.8252C4.48635 18.9677 4.58572 19.0923 4.70925 19.1889C4.95252 19.4004 5.26299 19.5165 5.58398 19.516C5.81953 19.5167 6.05003 19.447 6.2465 19.3157C6.46094 19.1757 6.62844 18.9734 6.72696 18.7355L14.3406 2.71046C14.4128 2.54774 14.4504 2.37159 14.4511 2.19331Z" fill="#2963A3"/>
<path d="M40.5463 13.6132C40.5371 13.7819 40.563 13.9508 40.6224 14.1088C40.6818 14.2668 40.7733 14.4105 40.891 14.5306C41.0137 14.6463 41.1578 14.7364 41.315 14.7957C41.4722 14.8551 41.6395 14.8825 41.8073 14.8764C42.1727 14.8949 42.5311 14.7693 42.8066 14.526C42.9336 14.41 43.0346 14.2679 43.1026 14.1092C43.1707 13.9505 43.2042 13.7789 43.201 13.606L43.281 2.51157C43.2913 2.33168 43.2649 2.15157 43.2035 1.98243C43.142 1.81328 43.0468 1.65871 42.9237 1.52832C42.6442 1.29545 42.2933 1.168 41.931 1.16779C41.5688 1.16757 41.2176 1.29462 40.9379 1.52715C40.811 1.65216 40.7112 1.80252 40.6451 1.96863C40.5789 2.13474 40.5477 2.31296 40.5535 2.49191L40.5074 8.89882C40.4991 10.0416 40.1733 10.9568 39.5298 11.6445C39.2 11.9887 38.8011 12.2576 38.3599 12.4331C37.9187 12.6086 37.4454 12.6866 36.9719 12.6619C36.0749 12.6555 35.4114 12.3965 34.9813 11.8851C34.5512 11.3737 34.3409 10.5835 34.3503 9.51437L34.4012 2.44758C34.4116 2.26769 34.3852 2.08759 34.3237 1.91844C34.2622 1.7493 34.167 1.59473 34.0439 1.46433C33.9113 1.34047 33.7555 1.24464 33.5856 1.18246C33.4158 1.12028 33.2354 1.09302 33.0549 1.10227C32.8714 1.08992 32.6874 1.11426 32.5132 1.17392C32.339 1.23357 32.1782 1.32735 32.04 1.44989C31.9139 1.57765 31.8157 1.73069 31.7517 1.89914C31.6877 2.06759 31.6594 2.24772 31.6686 2.42789L31.6174 9.52622C31.5918 13.0877 33.1803 14.8799 36.3832 14.903C37.2339 14.9209 38.0752 14.7207 38.8286 14.3212C39.5598 13.9273 40.1598 13.3244 40.5537 12.5878L40.5463 13.6132Z" fill="#2963A3"/>
<path d="M16.2411 34.8182L15.4841 34.7575C14.7662 34.698 14.2326 34.4672 13.8833 34.065C13.5374 33.6629 13.3702 33.0333 13.3764 32.1789L13.4239 25.5827L16.0863 25.6019C16.4005 25.6281 16.7132 25.5368 16.9652 25.3453C17.0721 25.246 17.1559 25.1239 17.2104 24.9879C17.2649 24.8519 17.2889 24.7054 17.2806 24.5589C17.2899 24.4126 17.2676 24.2661 17.2151 24.1294C17.1626 23.9928 17.0812 23.8695 16.9766 23.7679C16.7318 23.5626 16.4193 23.458 16.1016 23.475L13.4288 23.4558L13.449 20.648C13.4605 20.4669 13.4333 20.2854 13.3695 20.1157C13.3056 19.9461 13.2064 19.7923 13.0787 19.6647C12.8061 19.4168 12.4485 19.2859 12.082 19.2999C11.903 19.2891 11.7236 19.3143 11.5543 19.374C11.385 19.4337 11.2291 19.5268 11.0957 19.6477C10.9695 19.7755 10.8713 19.9285 10.8073 20.097C10.7434 20.2654 10.7151 20.4456 10.7242 20.6257L10.704 23.4361L9.08523 23.4245C8.76768 23.4023 8.45359 23.5025 8.20612 23.7047C8.09917 23.8042 8.01523 23.9262 7.96026 24.0621C7.9053 24.1981 7.88068 24.3445 7.88813 24.4912C7.88308 25.1922 8.27701 25.5456 9.0699 25.5514L10.6887 25.563L10.6425 31.9699C10.6314 33.5132 10.9821 34.6857 11.6973 35.4796C12.4125 36.2734 13.4945 36.7335 14.9511 36.8544L15.6794 36.9122C16.1025 36.977 16.5349 36.8988 16.9095 36.6897C17.0454 36.6009 17.156 36.4779 17.2306 36.3327C17.3051 36.1876 17.3409 36.0253 17.3345 35.862C17.3428 35.73 17.3245 35.5977 17.2807 35.473C17.2368 35.3484 17.1684 35.2341 17.0794 35.1371C16.8441 34.9374 16.5484 34.8248 16.2411 34.8182Z" fill="#2963A3"/>
<path d="M37.0225 17.5735C36.6642 17.5587 36.3131 17.6778 36.0363 17.9081C35.9012 18.0331 35.7955 18.1868 35.7267 18.3583C35.6579 18.5297 35.6279 18.7145 35.6387 18.8991L35.5173 35.7484C35.5029 35.931 35.53 36.1145 35.5964 36.2849C35.6629 36.4553 35.7669 36.6082 35.9006 36.7319C36.1777 36.9579 36.526 37.0761 36.882 37.065C37.2349 37.0827 37.582 36.9693 37.8577 36.746C37.9894 36.6218 38.0921 36.4697 38.1586 36.3006C38.2251 36.1315 38.2536 35.9496 38.2421 35.7681L38.3635 18.9187C38.3769 18.7355 38.3507 18.5514 38.2868 18.3794C38.2229 18.2073 38.1228 18.0514 37.9933 17.9222C37.7246 17.6869 37.378 17.5624 37.0225 17.5735Z" fill="#2963A3"/>
<path d="M51.3994 34.8796L46.1451 30.125L50.9813 25.7166C51.1214 25.6005 51.2355 25.4557 51.3161 25.2918C51.3967 25.1278 51.4419 24.9485 51.4488 24.7656C51.4427 24.4282 51.3083 24.1062 51.0737 23.8662C50.839 23.6262 50.5219 23.4865 50.188 23.4761C49.8514 23.4955 49.5336 23.6391 49.295 23.8798L43.1009 29.6403L43.1779 18.9534C43.1918 18.7701 43.1658 18.5859 43.1019 18.4138C43.0379 18.2417 42.9375 18.0857 42.8077 17.9569C42.54 17.7215 42.1942 17.597 41.8394 17.6082C41.4803 17.5932 41.1283 17.7123 40.8506 17.9428C40.7156 18.0677 40.6098 18.2215 40.541 18.3929C40.4723 18.5644 40.4422 18.7491 40.4531 18.9338L40.3318 35.7594C40.3183 35.9443 40.3457 36.1299 40.4119 36.3027C40.4782 36.4755 40.5817 36.6313 40.715 36.7587C40.9898 36.9922 41.34 37.1154 41.6989 37.1049C42.0531 37.1219 42.4007 37.0033 42.6721 36.7728C42.8039 36.6453 42.9065 36.4904 42.9729 36.3188C43.0393 36.1472 43.0679 35.963 43.0567 35.7791L43.093 30.7314L49.7695 36.7766C50.012 37.0231 50.3413 37.1625 50.6854 37.1644C50.8436 37.1664 51.0003 37.1339 51.145 37.0691C51.2896 37.0044 51.4187 36.9089 51.5236 36.7892C51.7586 36.5492 51.89 36.225 51.8892 35.8874C51.8899 35.6927 51.8461 35.5004 51.7611 35.3255C51.6762 35.1507 51.5524 34.9981 51.3994 34.8796Z" fill="#2963A3"/>
<path d="M16.3646 14.7481L23.3601 14.7985C24.5516 14.8332 25.7313 14.5506 26.7806 13.9792C27.759 13.4259 28.5537 12.5929 29.0648 11.5847C29.6218 10.4565 29.903 9.20983 29.8848 7.94926C29.9244 6.68121 29.6612 5.42222 29.1174 4.2787C28.6226 3.26082 27.8397 2.41428 26.8681 1.8463C25.8271 1.2598 24.6516 0.96027 23.4597 0.977785L21.2501 0.961864C20.0594 0.927148 18.8806 1.20973 17.8322 1.78119C16.8513 2.33358 16.0559 3.16917 15.548 4.18092C14.9869 5.31626 14.7047 6.57133 14.7252 7.84003L14.6974 11.6942C14.6814 13.9157 15.2377 14.74 16.3646 14.7481ZM18.4747 4.35976C19.1294 3.5582 20.0492 3.1617 21.2342 3.17023L23.4438 3.18616C24.6305 3.19471 25.5454 3.60619 26.1885 4.4206C26.8315 5.23501 27.1467 6.40462 27.134 7.92944C27.1228 9.47355 26.7951 10.6429 26.1509 11.4375C25.5067 12.2321 24.5816 12.626 23.3758 12.6191L17.4759 12.5765C17.4759 12.5765 17.4649 9.40308 17.4761 7.85985C17.4872 6.31662 17.8208 5.16745 18.4747 4.35976Z" fill="#2963A3"/>
<path d="M30.5732 24.0524C29.5337 23.4642 28.3588 23.1637 27.1674 23.1813L24.9579 23.1654C23.7661 23.1319 22.5865 23.4153 21.5373 23.9873C20.5577 24.5402 19.7627 25.3745 19.2531 26.3844C18.6989 27.5217 18.4221 28.7764 18.446 30.0436C18.4065 31.3026 18.6651 32.5529 19.2005 33.6905C19.6962 34.7064 20.479 35.551 21.4499 36.1176C22.491 36.7037 23.6664 37.0033 24.8583 36.9861L31.8538 37.0365C32.9833 37.0447 33.5488 36.2284 33.5648 33.999L33.5925 30.1528C33.6319 28.8845 33.3678 27.6253 32.8226 26.4822C32.3292 25.4639 31.5459 24.6178 30.5732 24.0524ZM30.7739 34.8492L24.874 34.8067C23.6716 34.798 22.7524 34.3917 22.1162 33.5879C21.48 32.784 21.1701 31.6092 21.1864 30.0634C21.1974 28.5351 21.5294 27.3701 22.1824 26.5685C22.8353 25.767 23.7552 25.3687 24.942 25.3738L27.1515 25.3897C28.3382 25.3982 29.2531 25.8097 29.8962 26.6241C30.5393 27.4385 30.857 28.6082 30.8495 30.133C30.8384 31.6763 30.7739 34.8492 30.7739 34.8492Z" fill="#2963A3"/>
</g>
<defs>
<clipPath id="clip0_4492_2245">
<rect width="51" height="36" fill="white" transform="translate(1.13037 0.816895) rotate(0.41285)"/>
</clipPath>
</defs>
</svg>
